<?xml version="1.0" encoding="utf-8"?>

<!DOCTYPE svg PUBLIC "-//W3C//DTD SVG 1.1//EN" "http://www.w3.org/Graphics/SVG/1.1/DTD/svg11.dtd">
<svg version="1.1" id="Layer_1" xmlns="http://www.w3.org/2000/svg" xmlns:xlink="http://www.w3.org/1999/xlink" x="0px" y="0px"
	 viewBox="0 0 1336 1745.529" enable-background="new 0 0 1336 1745.529" xml:space="preserve">
<g>
	<path d="M1085.199,332.692C921.543,157.11,742.282,61.216,672.418,74.109c-26.358,4.864-48.078,15.089-55.412,43.529
		c-15.118,58.632,39.641,156.954,72.231,207.613c150.534,233.994,427.27,432.28,540.731,414.184
		C1341.551,721.637,1257.373,517.412,1085.199,332.692z M898.933,360.418c-11.318,8.651-20.05,21.712-29.836,32.035
		c-39.259,41.415-39.226,39.772-48.573,28.847c-55.098-64.925-158.284-193.386-158.526-279.89
		c-0.095-34.173,41.933-20.111,61.49-12.068c50.789,20.887,89.506,35.064,145.134,74.242
		c87.128,61.365,301.059,258.27,353.604,413.152c6.227,18.354,23.452,58.506,4.717,73.59c-11.067,8.91-23.624,3.118-35.397-0.339
		c-42.604-12.507-85.037-28.607-142.542-64.689c-10.915-6.849-127.474-93.906-122.392-98.824
		c23.665-22.9,46.199-46.972,69.967-69.757C1033.708,421.137,949.906,321.457,898.933,360.418z"/>
	<path d="M800.104,1377.102c-13.529,12.697-60.909,60.275-60.913,60.278c0.032,0.433,0.076,0.898,0.134,1.375
		c-0.465-0.07-0.917-0.115-1.356-0.14c-3.305,3.815-7.241,7.03-10.565,10.832c-0.102,0.299-0.299,0.904-0.401,1.204
		c-2.31,0.337-10.114,9.753-13.927,12.838c0.032,0.433,0.076,0.891,0.14,1.375c-0.471-0.07-0.923-0.121-1.363-0.146
		c-1.705,2.182-11.763,11.794-12.768,12.774c0.038,0.51,0.083,1.038,0.14,1.586c-0.388-0.344-0.764-0.675-1.134-0.974
		c-1.73,2.241-9.747,5.998-12.399,5.763c-0.038,0.471-0.115,1.42-0.153,1.891c-0.427-1.477-2.878-1.987-3.401-0.357
		c-2.136-1.082-10.76-0.08-17.863-4.623c-8.696-6.003,7.475,8.617-31.681-30.089c-9.096-9.991-11.047-25.649,0.866-42.1
		c2.695-0.814,0.421-0.436,61.116-61.088c51.02-50.984,61.472-74.08,104.72-24.873
		C808.112,1332.657,827.343,1351.54,800.104,1377.102z"/>
	<path d="M785.278,1402.827c-53.8,117.162-24.614,75.601-129.327,171.573c-76.61,70.215-65.636,54.682-88.392,98.364
		c-346.014,0-338.115-0.076-338.115-0.076c0.156-0.082,81.262-138.856,81.35-139.007c31.144-53.32,26.99-36.202,16.801-75.464
		c-37.104-163.291-50.649-120.445-20.461-171.442c4.569-8.332,76.505-133.547,77.498-134.548c3.86-3.89,84.009-27.689,85.01-27.272
		c1.579,0.783,2.312,2.515,3.458,3.789c29.066,32.137,109.578,75.674,109.578,75.674c47.848,26.915,54.773,19.209,51.662,26.083
		c-16.886,37.3-94.172,47.2-112.288,50.32c-22.016,3.79-20.511-1.839-79.614-34.592c-7.716,12.841-20.868,35.88-22.435,38.686
		c5.78,2.4,19.286,11.757,20.766,12.405c0.938,1,39.532,28.148,60.032,59.707c7.659,7.7,32.745,54.965,35.973,72.367
		c0,0.001,5.145,21.415,5.145,21.416c11.164,62.937-7.298,117.562-15.436,128.438c-1.248,5.801-6.228,9.928-7.788,15.583
		c1.439,0.599,2.853,1.293,4.241,2.051c2.56-4.757,5.228-9.482,8.196-13.991c-0.089-0.669-0.306-1.388,0.178-1.923
		c2.056-3.33,7.07-16.125,7.419-16.576c-0.07-0.662-0.216-1.356,0.242-1.879c2.641-4.024,7.93-27.66,8.17-28.663
		c0.107-7.172,8.113-27.164-0.115-84.951c-15.665-70.174-46.483-98.248-50.878-106.833c9.787,4.327,11.612,18.932,43.632,11.193
		c-0.426,4.755-13.734,16.373,16.768,49.704c11.165,12.201,29.936,27.879,47.45,24.483c1.135-0.22,13.692-3.765,13.758-2.644
		c1.618,27.185,8.395,32.019,35.954,57.588c7.923,7.351,20.03,10.51,30.617,9.296
		C713.622,1488.328,751.385,1429.201,785.278,1402.827z"/>
	<path d="M764.507,1264.215c-5.057,16.608-75.507,73.598-138.19,143.528c-15.641,17.45-40.127,16.851-53.714-0.683
		c-10.559-11.792-26.478-21.628-27.951-41.2c3.435-17.685-0.616-11.061,39.015-51.186c0.988-1,94.988-97.496,108.107-107.815
		c13.071-10.281,31.769-8.321,43.602,3.426C754.859,1229.626,771.866,1240.047,764.507,1264.215z"/>
	<path d="M687.03,1201.137c0,0,2.217-2.75-51.371,50.816c-94.934,94.955-90.635,94.395-107.449,96.56
		c-10.483-1.033-17.122-2.202-29.637-15.143c-24.796-25.662-24.936-21.743-25.848-36.979c-0.555-9.035,1.68-14.963,7.005-23.053
		c-0.261,0.395,16.525,9.794,18.238,10.52c18.23,7.782,89.783-2.884,128.245-34.505c6.677-5.49,8.469-8.78,13.974-18.618
		c0.961-1.433,0.694-3.248,1.114-4.84c-4.133-6.541-11.155-3.068-23.078-9.756c-17.816-7.037-35.129-17.111-50.254-25.469
		c-3.711-2.051-3.064-1.701,4.453-9.844c50.106-49.662,48.203-48.527,53.322-50.53c23.211-9.08,34.162,4.751,40.639,11.226
		c16.568,16.564,25.589,23.112,27.013,36.974C694.202,1186.349,692.191,1195.076,687.03,1201.137z"/>
	<path d="M616.255,1126.495c-2.277,4.809-58.631,58.858-56.642,57.768c-2.383,1.305-49.052-29.112-73.868-50.107
		c-4.22-3.569-7.46-3.425-0.482-10.115c63.173-60.564,65.348-74.811,90.626-67.85c10.54,2.902,17.455,12.697,25.052,19.949
		c4.658,4.447,9.954,8.721,13.849,13.882C622.92,1100.456,623.813,1115.282,616.255,1126.495z"/>
	<path d="M566.966,998.91c-135.553,135.378-115.235,117.985-130.532,122.709c-69.686,21.519-55.362,8.974-86.2,66.406
		c-41.092,76.528-46.245,73.861-73.689,101.285c-53.2,53.16-251.384-150.871-217.289-204.531
		c1.445-3.169,296.336-297.277,297.34-298.276c0.236-0.064,0.707-0.197,0.949-0.261c1.55,1.139,187.347,187.11,189.197,188.961
		C568.283,996.723,569.555,996.878,566.966,998.91z"/>
	<path d="M473.049,1269.86c-1.651,2.147-13.728,9.892-29.582,4.233c-12.543-4.478-8.561-3.605,0.187-20.503
		C445.996,1253.558,472.043,1269.065,473.049,1269.86z"/>
	<path d="M469.878,1313.908c-0.192-0.896-23.891-19.123-26.01-20.532c-1.129-0.751-2.918-1.289-3.844-2.266
		c-3.764-3.998-12.088-6.364-12.601-8.804c-0.492-2.347,2.417-4.567,3.626-6.236c1.058,2.168,14.287,6.594,15.861,6.924
		c14.344,3.001,17.703-0.844,19.809-1.461c-0.817,0.239-3.459,12.999-0.134,23.815
		C467.481,1308.263,469.24,1310.942,469.878,1313.908z"/>
	<path d="M476.832,1274.948c0.079,0.079,0.224,0.216,0.287,0.274"/>
	<path d="M757.914,1275.782c0,0-0.102-0.089-0.293-0.274"/>
	<path d="M475.857,1277.757c0,0-0.102-0.089-0.293-0.274"/>
	<path d="M472.648,1314.717c0,0-0.096-0.089-0.287-0.274"/>
	<path d="M646.107,261.923c84.753,168.002,302.227,390.127,488.154,465.141c-47.483,4.385-303.85-16.814-553.29,217.595
		c-4.684,4.402-29.567,30.32-31.53,27.517c-56.154-56.23-112.423-112.346-168.532-168.615
		c0.998,1.001,94.646-98.058,153.699-208.423c56.342-105.298,90.57-228.552,90.473-355.736c0-4.534-0.26-9.148-0.01-13.675
		C625.86,211.475,631.732,233.428,646.107,261.923z"/>
	<line x1="567.558" y1="1672.764" x2="231.315" y2="1672.764"/>
</g>
</svg>
